<svg width="122" height="38" viewBox="0 0 122 38" fill="none" xmlns="http://www.w3.org/2000/svg">
<path d="M5.83287 24.3335C5.60734 24.3335 5.42609 24.3335 5.19973 24.108L1.85276 20.7602C1.76255 20.67 1.71661 20.6249 1.71661 20.5346C1.67151 20.4895 1.62641 20.3083 1.67152 20.127C1.67152 20.0368 1.7166 19.9917 1.76254 19.9466C1.80765 19.9015 1.85277 19.8556 1.89788 19.8105C1.98808 19.7202 2.03401 19.6301 2.07911 19.585C2.89267 18.8156 3.66198 18.0463 4.47638 17.323C6.28562 15.5589 8.0948 13.7948 9.90483 12.0307C9.90483 11.9405 10.0401 11.3975 10.4461 11.2622C10.5814 11.2163 10.7635 11.2163 10.8537 11.2163C11.08 11.2163 11.2605 11.2163 11.4868 11.4426L15.0142 14.7896C15.1512 14.9708 15.2865 15.1972 15.2406 15.4227C15.1955 15.6491 14.9699 15.7853 14.8789 15.8304C14.4721 16.0567 13.2059 17.323 10.8078 19.8556C9.36107 21.258 7.95863 22.6604 6.51108 24.0169C6.46597 24.0629 6.42087 24.1982 6.28556 24.2884C6.14945 24.3335 6.01414 24.3335 5.83287 24.3335Z" fill="#AF145B"/>
<path d="M14.9724 8.09637L8.09637 1.44754C7.05561 0.633144 5.78933 0 4.34177 0C2.89424 0 1.44754 0.633138 0.40678 1.6739C-4.09398e-07 1.89942 0 2.08068 0 2.30704C0 2.53256 -3.25812e-06 2.71381 0.226357 2.94018L9.58902 11.8961C9.81454 12.1224 9.99661 12.1224 9.99661 12.3028C12.0773 14.6098 12.3036 17.9117 10.4025 20.2187L14.9724 15.831C16.0114 15.0166 16.6454 13.524 16.6454 12.0765C16.6454 10.6297 16.0114 9.13713 14.9724 8.09637Z" fill="url(#paint0_linear_5_1326)"/>
<path d="M6.87587 23.1132C4.79518 20.8061 4.56882 17.5043 6.64949 15.1973L2.08136 19.585C1.04061 20.6257 0.407471 22.0725 0.407471 23.52C0.407471 24.9675 1.04061 26.415 2.08136 27.4549L12.0771 37.6328C12.3035 37.8584 12.4847 37.8584 12.7111 37.8584C12.9374 37.8584 13.1179 37.8584 13.3434 37.6328C14.3842 36.5921 15.0165 35.1445 15.0165 33.697C15.0165 32.2503 14.3842 30.8027 13.3434 29.762L7.10219 23.52C7.05628 23.2936 6.87587 23.2936 6.87587 23.1132Z" fill="url(#paint1_linear_5_1326)"/>
<path d="M30.6858 17.7298C31.0032 16.9162 31.4559 16.3282 32.1793 15.9206C32.8576 15.5138 33.672 15.3326 34.4863 15.3326V18.9059C33.4907 18.7706 32.6312 18.997 31.8176 19.4939C31.0483 19.9918 30.6858 20.8512 30.6858 22.0724V28.043H27.4758V15.5589H30.6858V17.7298ZM49.0059 26.5504C47.7389 27.8166 46.1552 28.4498 44.3009 28.4498C42.4465 28.4498 40.9088 27.8166 39.5974 26.5504C38.3311 25.2841 37.6972 23.7004 37.6972 21.8461C37.6972 19.9918 38.3311 18.454 39.5974 17.1877C40.8645 15.9206 42.4465 15.2424 44.3009 15.2424C46.1552 15.2424 47.6929 15.8755 49.0059 17.1877C50.2714 18.454 50.9496 19.9918 50.9496 21.8461C50.9496 23.7004 50.3173 25.239 49.0059 26.5504ZM41.9044 24.3343C42.5367 24.9675 43.3511 25.3292 44.3468 25.3292C45.3416 25.3292 46.1109 25.0126 46.79 24.3343C47.4223 23.7004 47.784 22.8417 47.784 21.8461C47.784 20.8512 47.4665 20.0369 46.79 19.3586C46.1552 18.7255 45.3416 18.3638 44.3468 18.3638C43.3511 18.3638 42.5818 18.6804 41.9044 19.3586C41.2705 19.9918 40.9539 20.8512 40.9539 21.8461C40.9539 22.8417 41.2705 23.6553 41.9044 24.3343ZM63.9313 15.604H67.1424V28.0881H63.9313V26.6857C63.162 27.8617 61.8959 28.4498 60.2229 28.4498C58.8658 28.4498 57.7353 27.9979 56.8308 27.0933C55.9254 26.1887 55.5195 24.9215 55.5195 23.2936V15.6492H58.7301V22.9319C58.7301 23.7463 58.9556 24.4246 59.4084 24.8764C59.8611 25.3292 60.4495 25.5096 61.2171 25.5096C62.031 25.5096 62.7104 25.239 63.2084 24.7411C63.7058 24.2433 63.9765 23.4289 63.9765 22.4341L63.9313 15.604ZM79.7628 18.6804H76.9123V23.8816C76.9123 24.3343 77.0039 24.6509 77.23 24.8313C77.4555 25.0126 77.7732 25.1479 78.1796 25.193C78.5871 25.193 79.1286 25.193 79.7164 25.1479V28.0881C77.5007 28.3595 75.9187 28.1332 75.0132 27.455C74.1088 26.7767 73.6561 25.6006 73.6561 23.8816V18.6804H71.4856V15.604H73.6561V13.0715L76.8683 12.0767V15.5589H79.6723V18.6804H79.7628ZM86.8643 23.1583C87.317 24.7411 88.4927 25.5096 90.3924 25.5096C91.6145 25.5096 92.5635 25.1028 93.1965 24.2433L95.774 25.736C94.5536 27.5001 92.7438 28.4046 90.3472 28.4046C88.2666 28.4046 86.6376 27.7715 85.3715 26.5504C84.1054 25.2841 83.517 23.7463 83.517 21.8461C83.517 19.9467 84.1512 18.4089 85.3715 17.1418C86.5935 15.8755 88.1756 15.2424 90.1211 15.2424C91.9293 15.2424 93.4684 15.8755 94.6446 17.1418C95.8197 18.4089 96.4534 19.9918 96.4534 21.8461C96.4534 22.2537 96.4081 22.7056 96.3177 23.1583H86.8643ZM86.8179 20.67H93.1965C93.0157 19.8105 92.6081 19.1774 92.0661 18.7706C91.4782 18.3638 90.844 18.1374 90.1211 18.1374C89.2603 18.1374 88.5374 18.3638 87.9959 18.8157C87.3611 19.2684 86.9994 19.8564 86.8179 20.67ZM104.368 17.7298C104.685 16.9162 105.138 16.3282 105.862 15.9206C106.54 15.5138 107.354 15.3326 108.169 15.3326V18.9059C107.173 18.7706 106.314 18.997 105.5 19.4939C104.73 19.9918 104.368 20.8512 104.368 22.0724V28.043H101.157V15.5589H104.368V17.7298Z" fill="#CB0766"/>
<path d="M121.344 15.4541H117.91L117.958 22.3434L117.91 26.6319V28.0465H121.344V15.4541Z" fill="#CB0766"/>
<path d="M112.759 28.0466C113.707 28.0466 114.476 27.2778 114.476 26.3294C114.476 25.3811 113.707 24.6123 112.759 24.6123C111.81 24.6123 111.042 25.3811 111.042 26.3294C111.042 27.2778 111.81 28.0466 112.759 28.0466Z" fill="#CB0766"/>
<path d="M119.627 14.3093C120.576 14.3093 121.344 13.5405 121.344 12.5921C121.344 11.6438 120.576 10.875 119.627 10.875C118.679 10.875 117.91 11.6438 117.91 12.5921C117.91 13.5405 118.679 14.3093 119.627 14.3093Z" fill="#CB0766"/>
<defs>
<linearGradient id="paint0_linear_5_1326" x1="0" y1="10.1094" x2="16.6454" y2="10.1094" gradientUnits="userSpaceOnUse">
<stop stop-color="#CB0766"/>
<stop offset="1" stop-color="#E04391"/>
</linearGradient>
<linearGradient id="paint1_linear_5_1326" x1="0.245427" y1="26.5278" x2="14.9496" y2="26.5278" gradientUnits="userSpaceOnUse">
<stop stop-color="#CB0766"/>
<stop offset="1" stop-color="#E04391"/>
</linearGradient>
</defs>
</svg>
